<?xml version="1.0" encoding="UTF-8" standalone="no"?>
<svg width="24px" height="21px" viewBox="0 0 24 21" version="1.1" xmlns="http://www.w3.org/2000/svg" xmlns:xlink="http://www.w3.org/1999/xlink" xmlns:sketch="http://www.bohemiancoding.com/sketch/ns">
    <!-- Generator: Sketch 3.3.2 (12043) - http://www.bohemiancoding.com/sketch -->
    <title>vimeo</title>
    <desc>Created with Sketch.</desc>
    <defs></defs>
    <g id="Page-1" stroke="none" stroke-width="1" fill="none" fill-rule="evenodd" sketch:type="MSPage">
        <g id="Home-v1" sketch:type="MSArtboardGroup" transform="translate(-720.000000, -1686.000000)" fill="#98A5B0">
            <g id="Footer" sketch:type="MSLayerGroup" transform="translate(240.000000, 1632.000000)">
                <g id="Social-Icons" transform="translate(255.000000, 53.000000)" sketch:type="MSShapeGroup">
                    <path d="M225,6.698062 L225.975,7.976062 C225.975,7.976062 227.985,6.392062 228.6555,7.183312 C229.32525,7.976062 231.8835,17.542312 232.737,19.306312 C233.4825,20.854312 235.53825,22.900312 237.7935,21.439312 C240.0465,19.978312 247.539,13.581562 248.88075,6.026062 C250.22025,-1.525688 239.8635,0.0560619972 238.767,6.635812 C241.50825,4.989562 242.97225,7.304062 241.569,9.926062 C240.16875,12.544312 238.8885,14.252062 238.21875,14.252062 C237.54975,14.252062 237.03525,12.500062 236.26875,9.437062 C235.47675,6.269812 235.482,0.566811997 232.188,1.213312 C229.08225,1.823062 225,6.698062 225,6.698062" id="vimeo"></path>
                </g>
            </g>
        </g>
    </g>
</svg>