<?xml version="1.0" encoding="UTF-8" standalone="no"?>
<svg width="24px" height="24px" viewBox="0 0 24 24" version="1.1" xmlns="http://www.w3.org/2000/svg" xmlns:xlink="http://www.w3.org/1999/xlink" xmlns:sketch="http://www.bohemiancoding.com/sketch/ns">
    <!-- Generator: Sketch 3.3.2 (12043) - http://www.bohemiancoding.com/sketch -->
    <title>dribbble</title>
    <desc>Created with Sketch.</desc>
    <defs></defs>
    <g id="Page-1" stroke="none" stroke-width="1" fill="none" fill-rule="evenodd" sketch:type="MSPage">
        <g id="Home-v1" sketch:type="MSArtboardGroup" transform="translate(-540.000000, -1685.000000)" fill="#98A5B0">
            <g id="Footer" sketch:type="MSLayerGroup" transform="translate(240.000000, 1632.000000)">
                <g id="Social-Icons" transform="translate(255.000000, 53.000000)" sketch:type="MSShapeGroup">
                    <path d="M62.946,5.30475 C62.784,5.535 61.434,7.34925 58.245,8.54475 C56.775,5.84475 55.146,3.62625 54.89775,3.29475 C55.5735,3.132 56.27625,3.045 57,3.045 C59.27925,3.045 61.36125,3.9 62.946,5.30475 L62.946,5.30475 Z M57.627,12.09225 C53.00175,13.587 50.54025,17.6625 50.33625,18.0105 C48.9045,16.4205 48.0315,14.3175 48.0315,12.01425 C48.0315,11.922 48.033,11.8305 48.036,11.73975 C48.42825,11.748 52.7745,11.8035 57.2535,10.46325 C57.51,10.96575 57.75525,11.47575 57.98025,11.98575 C57.861,12.01875 57.744,12.054 57.627,12.09225 L57.627,12.09225 Z M57,0 C50.373,0 45,5.373 45,12 C45,18.627 50.373,24 57,24 C63.627,24 69,18.627 69,12 C69,5.373 63.627,0 57,0 L57,0 Z M57,22.5 C51.21,22.5 46.5,17.79 46.5,12 C46.5,6.21 51.21,1.5 57,1.5 C62.79,1.5 67.5,6.21 67.5,12 C67.5,17.79 62.79,22.5 57,22.5 L57,22.5 Z M59.52975,11.17725 C59.343,10.74 59.14275,10.30575 58.93425,9.87825 C62.25,8.5245 63.753,6.59775 63.942,6.342 C65.1915,7.86825 65.9475,9.81225 65.96775,11.92875 C65.6715,11.8665 62.70675,11.265 59.7225,11.64075 C59.66025,11.48625 59.59575,11.3325 59.52975,11.17725 L59.52975,11.17725 Z M56.5125,9.084 C52.317,10.1985 48.62175,10.182 48.22125,10.17675 C48.8025,7.3935 50.6775,5.0805 53.187,3.897 C53.42325,4.22175 55.026,6.4425 56.5125,9.084 L56.5125,9.084 Z M58.53075,13.488 C58.55025,13.48125 58.5705,13.47525 58.59,13.4685 C59.84925,16.74 60.36975,19.48275 60.504,20.2695 C59.42625,20.7285 58.242,20.98275 57,20.98275 C54.92625,20.98275 53.016,20.27475 51.495,19.089 C51.65625,18.759 53.47275,15.25125 58.53075,13.488 L58.53075,13.488 Z M60.2685,13.05375 C63.07875,12.60375 65.5485,13.34025 65.85525,13.437 C65.45475,15.933 64.023,18.08775 62.0115,19.44825 C61.91925,18.903 61.4415,16.27725 60.2685,13.05375 L60.2685,13.05375 Z" id="dribbble"></path>
                </g>
            </g>
        </g>
    </g>
</svg>