<?xml version="1.0" encoding="UTF-8" standalone="no"?>
<svg width="24px" height="24px" viewBox="0 0 24 24" version="1.1" xmlns="http://www.w3.org/2000/svg" xmlns:xlink="http://www.w3.org/1999/xlink" xmlns:sketch="http://www.bohemiancoding.com/sketch/ns">
    <!-- Generator: Sketch 3.3.2 (12043) - http://www.bohemiancoding.com/sketch -->
    <title>github</title>
    <desc>Created with Sketch.</desc>
    <defs></defs>
    <g id="Page-1" stroke="none" stroke-width="1" fill="none" fill-rule="evenodd" sketch:type="MSPage">
        <g id="Home-v1" sketch:type="MSArtboardGroup" transform="translate(-585.000000, -1685.000000)" fill="#98A5B0">
            <g id="Footer" sketch:type="MSLayerGroup" transform="translate(240.000000, 1632.000000)">
                <g id="Social-Icons" transform="translate(255.000000, 53.000000)" sketch:type="MSShapeGroup">
                    <path d="M111.99975,12 C111.99975,10.6455 111.73425,9.35175 111.20325,8.11725 C110.6715,6.88275 109.96125,5.82 109.07025,4.92975 C108.18,4.03875 107.11725,3.3285 105.88275,2.79675 C104.64825,2.26575 103.3545,2.00025 102,2.00025 C100.6455,2.00025 99.35175,2.26575 98.11725,2.79675 C96.88275,3.3285 95.82,4.03875 94.92975,4.92975 C94.03875,5.82 93.3285,6.88275 92.79675,8.11725 C92.26575,9.35175 92.00025,10.6455 92.00025,12 C92.00025,14.17725 92.64825,16.14825 93.945,17.91375 C95.2425,19.68 96.927,20.88525 99,21.531 L99,18.891 C98.4375,18.96375 98.07825,18.99975 97.92225,18.99975 C96.77625,18.99975 95.979,18.47925 95.53125,17.4375 C95.37525,17.0415 95.18775,16.71375 94.96875,16.4535 C94.917,16.3905 94.8075,16.2915 94.64025,16.1565 C94.47375,16.02075 94.326,15.8955 94.1955,15.7815 C94.065,15.66675 93.99975,15.5835 93.99975,15.53175 C93.99975,15.4065 94.146,15.3435 94.43775,15.3435 C94.73925,15.3435 95.00775,15.41925 95.2425,15.57 C95.4765,15.7215 95.6745,15.90375 95.83575,16.1175 C95.99775,16.3305 96.16125,16.5465 96.3285,16.7655 C96.495,16.9845 96.70575,17.16975 96.96075,17.3205 C97.2165,17.47125 97.5105,17.547 97.84425,17.547 C98.2815,17.547 98.703,17.47425 99.1095,17.328 C99.276,16.73475 99.6045,16.2705 100.09425,15.9375 C98.36475,15.771 97.083,15.336 96.24975,14.6325 C95.4165,13.92975 95.00025,12.7605 95.00025,11.12475 C95.00025,9.8955 95.3805,8.86425 96.141,8.031 C95.99475,7.59375 95.922,7.1565 95.922,6.71925 C95.922,6.11475 96.063,5.547 96.34425,5.016 C96.9375,5.016 97.46325,5.11725 97.92225,5.3205 C98.3805,5.52375 98.90625,5.83875 99.50025,6.2655 C100.2915,6.078 101.172,5.98425 102.141,5.98425 C102.97425,5.98425 103.77075,6.0675 104.53125,6.23475 C105.12525,5.81775 105.64875,5.51025 106.10175,5.313 C106.55475,5.11425 107.073,5.016 107.6565,5.016 C107.93775,5.547 108.078,6.11475 108.078,6.71925 C108.078,7.167 108.00525,7.599 107.859,8.016 C108.6195,8.8695 109.0005,9.90675 109.0005,11.12475 C109.0005,12.7605 108.5835,13.935 107.75025,14.64825 C106.917,15.3615 105.6405,15.79725 103.92225,15.95325 C104.64075,16.443 105,17.1255 105,18 L105,21.531 C107.073,20.88525 108.7575,19.68 110.055,17.91375 C111.35175,16.14825 111.99975,14.17725 111.99975,12 L111.99975,12 Z M114,12 C114,14.17725 113.46375,16.185 112.3905,18.02325 C111.318,19.8615 109.8615,21.318 108.02325,22.3905 C106.185,23.46375 104.17725,24 102,24 C99.82275,24 97.815,23.46375 95.97675,22.3905 C94.1385,21.318 92.682,19.8615 91.6095,18.02325 C90.53625,16.185 90,14.17725 90,12 C90,9.82275 90.53625,7.815 91.6095,5.97675 C92.682,4.1385 94.1385,2.682 95.97675,1.6095 C97.815,0.53625 99.82275,0 102,0 C104.17725,0 106.185,0.53625 108.02325,1.6095 C109.8615,2.682 111.318,4.1385 112.3905,5.97675 C113.46375,7.815 114,9.82275 114,12 L114,12 Z" id="github"></path>
                </g>
            </g>
        </g>
    </g>
</svg>