<?xml version="1.0" encoding="UTF-8" standalone="no"?>
<svg width="24px" height="24px" viewBox="0 0 24 24" version="1.1" xmlns="http://www.w3.org/2000/svg" xmlns:xlink="http://www.w3.org/1999/xlink" xmlns:sketch="http://www.bohemiancoding.com/sketch/ns">
    <!-- Generator: Sketch 3.3.2 (12043) - http://www.bohemiancoding.com/sketch -->
    <title>instagram</title>
    <desc>Created with Sketch.</desc>
    <defs></defs>
    <g id="Page-1" stroke="none" stroke-width="1" fill="none" fill-rule="evenodd" sketch:type="MSPage">
        <g id="Home-v1" sketch:type="MSArtboardGroup" transform="translate(-675.000000, -1685.000000)" fill="#98A5B0">
            <g id="Footer" sketch:type="MSLayerGroup" transform="translate(240.000000, 1632.000000)">
                <g id="Social-Icons" transform="translate(255.000000, 53.000000)" sketch:type="MSShapeGroup">
                    <path d="M199.2555,12 C199.2555,16.008 196.00575,19.2555 192,19.2555 C187.99275,19.2555 184.7445,16.008 184.7445,12 C184.7445,11.52225 184.79175,11.0565 184.881,10.605 L180,10.605 L180,20.24925 C180,22.32 181.677,24 183.75075,24 L200.24925,24 C202.32,24 204,22.3215 204,20.24925 L204,10.605 L199.1205,10.605 C199.20825,11.0565 199.2555,11.52225 199.2555,12 L199.2555,12 Z M200.24925,0 L183.75075,0 C181.6785,0 180,1.68 180,3.75075 L180,7.8135 L186.07575,7.8135 C187.38825,5.958 189.55275,4.7445 192,4.7445 C194.44725,4.7445 196.61175,5.958 197.92425,7.8135 L204,7.8135 L204,3.75075 C204,1.68 202.32,0 200.24925,0 L200.24925,0 Z M202.08375,4.63275 C202.08375,5.0025 201.783,5.3025 201.41475,5.3025 L199.40625,5.3025 C199.038,5.3025 198.7365,5.001 198.7365,4.63275 L198.7365,2.6235 C198.7365,2.25375 199.0395,1.953 199.40625,1.953 L201.41475,1.953 C201.78375,1.953 202.08375,2.2545 202.08375,2.6235 L202.08375,4.63275 L202.08375,4.63275 Z M196.4655,12 C196.4655,9.53325 194.466,7.53525 192,7.53525 C189.534,7.53525 187.5345,9.53325 187.5345,12 C187.5345,14.46675 189.534,16.46475 192,16.46475 C194.466,16.46475 196.4655,14.46675 196.4655,12 L196.4655,12 Z" id="instagram"></path>
                </g>
            </g>
        </g>
    </g>
</svg>