<?xml version="1.0" encoding="UTF-8" standalone="no"?>
<svg width="15px" height="24px" viewBox="0 0 15 24" version="1.1" xmlns="http://www.w3.org/2000/svg" xmlns:xlink="http://www.w3.org/1999/xlink" xmlns:sketch="http://www.bohemiancoding.com/sketch/ns">
    <!-- Generator: Sketch 3.3.2 (12043) - http://www.bohemiancoding.com/sketch -->
    <title>tumblr</title>
    <desc>Created with Sketch.</desc>
    <defs></defs>
    <g id="Page-1" stroke="none" stroke-width="1" fill="none" fill-rule="evenodd" sketch:type="MSPage">
        <g id="Home-v1" sketch:type="MSArtboardGroup" transform="translate(-770.000000, -1685.000000)" fill="#98A5B0">
            <g id="Footer" sketch:type="MSLayerGroup" transform="translate(240.000000, 1632.000000)">
                <g id="Social-Icons" transform="translate(255.000000, 53.000000)" sketch:type="MSShapeGroup">
                    <path d="M283.99625,10.5 L283.99625,15.98775 C283.99625,17.38125 283.97825,18.183 284.126,18.579 C284.27225,18.97125 284.63975,19.3785 285.0395,19.614 C285.57125,19.93275 286.17725,20.09175 286.86125,20.09175 C288.07625,20.09175 288.794,19.93125 289.9955,19.1415 L289.9955,22.74975 C288.971,23.232 288.077,23.514 287.246,23.70825 C286.4135,23.90175 285.515,24 284.549,24 C283.45175,24 282.80375,23.86125 281.9615,23.58525 C281.1185,23.30775 280.39925,22.911 279.8045,22.401 C279.20825,21.888 278.7965,21.34125 278.5655,20.7645 C278.33525,20.187 278.2205,19.3485 278.2205,18.25125 L278.2205,9.834 L275,9.834 L275,6.43575 C275.942,6.1305 276.9965,5.691 277.667,5.1195 C278.3405,4.54725 278.87975,3.861 279.28625,3.0585 C279.69425,2.25825 279.974,1.23675 280.127,0 L283.99625,0 L283.99625,5.99925 L289.9955,5.99925 L289.9955,10.5 L283.99625,10.5" id="tumblr"></path>
                </g>
            </g>
        </g>
    </g>
</svg>