<?xml version="1.0" encoding="UTF-8" standalone="no"?>
<svg width="24px" height="20px" viewBox="0 0 24 20" version="1.1" xmlns="http://www.w3.org/2000/svg" xmlns:xlink="http://www.w3.org/1999/xlink" xmlns:sketch="http://www.bohemiancoding.com/sketch/ns">
    <!-- Generator: Sketch 3.3.2 (12043) - http://www.bohemiancoding.com/sketch -->
    <title>Imported Layers</title>
    <desc>Created with Sketch.</desc>
    <defs></defs>
    <g id="Page-1" stroke="none" stroke-width="1" fill="none" fill-rule="evenodd" sketch:type="MSPage">
        <g id="Home-v1" sketch:type="MSArtboardGroup" transform="translate(-495.000000, -1687.000000)" fill="#98A5B0">
            <g id="Footer" sketch:type="MSLayerGroup" transform="translate(240.000000, 1632.000000)">
                <g id="Social-Icons" transform="translate(255.000000, 53.000000)" sketch:type="MSShapeGroup">
                    <path d="M24,4.30925 C23.11725,4.70075 22.1685,4.9655 21.1725,5.084 C22.18875,4.475 22.9695,3.50975 23.337,2.36075 C22.386,2.92475 21.3315,3.33425 20.21025,3.55475 C19.3125,2.5985 18.033,2 16.61625,2 C13.89675,2 11.6925,4.205 11.6925,6.92375 C11.6925,7.31 11.73525,7.68575 11.82,8.0465 C7.72725,7.84025 4.0995,5.8805 1.671,2.9015 C1.24725,3.629 1.00425,4.475 1.00425,5.37725 C1.00425,7.085 1.8735,8.5925 3.19425,9.47525 C2.38725,9.44975 1.62825,9.2285 0.9645,8.8595 C0.96375,8.87975 0.96375,8.90075 0.96375,8.921 C0.96375,11.30675 2.661,13.29725 4.914,13.7495 C4.50075,13.862 4.06575,13.922 3.6165,13.922 C3.29925,13.922 2.991,13.89125 2.69025,13.83425 C3.3165,15.7895 5.13525,17.21375 7.29,17.2535 C5.60475,18.5735 3.4815,19.361 1.1745,19.361 C0.777,19.361 0.3855,19.33775 0,19.292 C2.17875,20.68925 4.767,21.5045 7.548,21.5045 C16.605,21.5045 21.55725,14.0015 21.55725,7.4945 C21.55725,7.2815 21.55275,7.06925 21.543,6.85775 C22.50525,6.16325 23.34,5.29625 24,4.30925" id="Imported-Layers"></path>
                </g>
            </g>
        </g>
    </g>
</svg>